<?xml version="1.0" encoding="utf-8"?>
<!-- Generator: Adobe Illustrator 25.3.1, SVG Export Plug-In . SVG Version: 6.00 Build 0)  -->
<svg version="1.1" id="图层_1" xmlns="http://www.w3.org/2000/svg" xmlns:xlink="http://www.w3.org/1999/xlink" x="0px" y="0px"
	 viewBox="0 0 333 150" style="enable-background:new 0 0 333 150;" xml:space="preserve">
<g>
	<path d="M57.19,111.9c-4.51,3.51-8.88,6.14-13.09,7.9c-4.22,1.75-8.94,2.63-14.18,2.63c-4.79,0-8.99-0.95-12.61-2.84
		s-6.42-4.45-8.37-7.69c-1.96-3.24-2.94-6.74-2.94-10.53c0-5.1,1.62-9.46,4.85-13.06c3.24-3.6,7.68-6.02,13.33-7.25
		c1.18-0.27,4.12-0.89,8.82-1.85c4.69-0.96,8.72-1.83,12.07-2.63c3.35-0.8,6.98-1.77,10.9-2.91c-0.23-4.92-1.22-8.53-2.97-10.83
		c-1.75-2.3-5.39-3.45-10.9-3.45c-4.74,0-8.31,0.66-10.7,1.98c-2.39,1.32-4.44,3.3-6.15,5.95c-1.71,2.64-2.92,4.39-3.62,5.23
		c-0.71,0.84-2.22,1.26-4.55,1.26c-2.1,0-3.91-0.67-5.43-2.02c-1.53-1.34-2.29-3.06-2.29-5.16c0-3.28,1.16-6.47,3.49-9.57
		c2.32-3.1,5.95-5.65,10.87-7.66c4.92-2,11.05-3.01,18.39-3.01c8.2,0,14.65,0.97,19.35,2.91c4.69,1.94,8.01,5,9.95,9.19
		c1.94,4.19,2.91,9.75,2.91,16.68c0,4.38-0.01,8.09-0.03,11.14c-0.02,3.05-0.06,6.45-0.1,10.19c0,3.51,0.58,7.17,1.74,10.97
		c1.16,3.81,1.74,6.25,1.74,7.35c0,1.91-0.9,3.66-2.7,5.23c-1.8,1.57-3.84,2.36-6.12,2.36c-1.91,0-3.81-0.9-5.67-2.7
		C61.27,117.92,59.29,115.31,57.19,111.9z M55.96,84.89c-2.73,1-6.71,2.06-11.93,3.18c-5.22,1.12-8.83,1.94-10.83,2.46
		c-2.01,0.52-3.92,1.55-5.74,3.08c-1.82,1.53-2.73,3.66-2.73,6.39c0,2.83,1.07,5.23,3.21,7.21c2.14,1.98,4.94,2.97,8.41,2.97
		c3.69,0,7.1-0.81,10.22-2.43c3.12-1.62,5.41-3.7,6.87-6.25c1.69-2.83,2.53-7.47,2.53-13.95V84.89z"/>
	<path d="M108.6,57v2.26c3.51-4.33,7.15-7.51,10.94-9.54c3.78-2.03,8.07-3.04,12.85-3.04c5.74,0,11.03,1.48,15.86,4.44
		c4.83,2.96,8.65,7.29,11.45,12.99c2.8,5.7,4.2,12.44,4.2,20.23c0,5.74-0.81,11.02-2.43,15.83c-1.62,4.81-3.84,8.84-6.67,12.1
		c-2.83,3.26-6.16,5.77-10.01,7.52c-3.85,1.75-7.99,2.63-12.41,2.63c-5.33,0-9.81-1.07-13.43-3.21s-7.08-5.29-10.36-9.43v28.03
		c0,8.2-2.99,12.3-8.96,12.3c-3.51,0-5.83-1.06-6.97-3.18c-1.14-2.12-1.71-5.21-1.71-9.26V57.14c0-3.55,0.77-6.21,2.32-7.96
		c1.55-1.75,3.67-2.63,6.36-2.63c2.64,0,4.8,0.9,6.46,2.7C107.77,51.05,108.6,53.63,108.6,57z M145.17,84.14
		c0-4.92-0.75-9.15-2.26-12.68c-1.5-3.53-3.59-6.24-6.25-8.13c-2.67-1.89-5.62-2.84-8.85-2.84c-5.15,0-9.49,2.03-13.02,6.08
		c-3.53,4.06-5.3,10.03-5.3,17.91c0,7.43,1.75,13.21,5.26,17.33c3.51,4.12,7.86,6.19,13.06,6.19c3.1,0,5.97-0.9,8.61-2.7
		c2.64-1.8,4.76-4.5,6.36-8.1C144.37,93.6,145.17,89.25,145.17,84.14z"/>
	<path d="M196.1,57v2.26c3.51-4.33,7.15-7.51,10.94-9.54c3.78-2.03,8.07-3.04,12.85-3.04c5.74,0,11.03,1.48,15.86,4.44
		c4.83,2.96,8.65,7.29,11.45,12.99c2.8,5.7,4.2,12.44,4.2,20.23c0,5.74-0.81,11.02-2.43,15.83c-1.62,4.81-3.84,8.84-6.67,12.1
		c-2.83,3.26-6.16,5.77-10.01,7.52c-3.85,1.75-7.99,2.63-12.41,2.63c-5.33,0-9.81-1.07-13.43-3.21s-7.08-5.29-10.36-9.43v28.03
		c0,8.2-2.99,12.3-8.96,12.3c-3.51,0-5.83-1.06-6.97-3.18c-1.14-2.12-1.71-5.21-1.71-9.26V57.14c0-3.55,0.77-6.21,2.32-7.96
		c1.55-1.75,3.67-2.63,6.36-2.63c2.64,0,4.8,0.9,6.46,2.7C195.27,51.05,196.1,53.63,196.1,57z M232.67,84.14
		c0-4.92-0.75-9.15-2.26-12.68c-1.5-3.53-3.59-6.24-6.25-8.13c-2.67-1.89-5.62-2.84-8.85-2.84c-5.15,0-9.49,2.03-13.02,6.08
		c-3.53,4.06-5.3,10.03-5.3,17.91c0,7.43,1.75,13.21,5.26,17.33c3.51,4.12,7.86,6.19,13.06,6.19c3.1,0,5.97-0.9,8.61-2.7
		c2.64-1.8,4.76-4.5,6.36-8.1C231.87,93.6,232.67,89.25,232.67,84.14z"/>
	<path d="M326.46,98.02c0,5.15-1.25,9.56-3.76,13.23c-2.51,3.67-6.21,6.45-11.11,8.34c-4.9,1.89-10.86,2.84-17.88,2.84
		c-6.7,0-12.44-1.03-17.23-3.08s-8.32-4.61-10.6-7.69c-2.28-3.08-3.42-6.16-3.42-9.26c0-2.05,0.73-3.8,2.19-5.26
		c1.46-1.46,3.3-2.19,5.54-2.19c1.96,0,3.46,0.48,4.51,1.44c1.05,0.96,2.05,2.3,3.01,4.03c1.91,3.33,4.2,5.81,6.87,7.45
		s6.3,2.46,10.9,2.46c3.74,0,6.8-0.83,9.19-2.5c2.39-1.66,3.59-3.57,3.59-5.71c0-3.28-1.24-5.67-3.73-7.18
		c-2.48-1.5-6.57-2.94-12.27-4.31c-6.43-1.59-11.66-3.27-15.69-5.02c-4.03-1.75-7.26-4.07-9.67-6.94c-2.42-2.87-3.62-6.4-3.62-10.6
		c0-3.74,1.12-7.27,3.35-10.6c2.23-3.33,5.53-5.98,9.88-7.96c4.35-1.98,9.6-2.97,15.76-2.97c4.83,0,9.17,0.5,13.02,1.5
		c3.85,1,7.06,2.35,9.64,4.03c2.57,1.69,4.53,3.55,5.88,5.61c1.34,2.05,2.02,4.06,2.02,6.02c0,2.14-0.72,3.9-2.15,5.26
		s-3.48,2.05-6.12,2.05c-1.91,0-3.54-0.55-4.89-1.64c-1.34-1.09-2.88-2.73-4.61-4.92c-1.41-1.82-3.08-3.28-4.99-4.38
		s-4.51-1.64-7.79-1.64c-3.37,0-6.18,0.72-8.41,2.15c-2.23,1.44-3.35,3.22-3.35,5.37c0,1.96,0.82,3.57,2.46,4.82
		c1.64,1.25,3.85,2.29,6.63,3.11c2.78,0.82,6.61,1.82,11.48,3.01c5.79,1.41,10.52,3.1,14.18,5.06c3.67,1.96,6.45,4.27,8.34,6.94
		C325.51,91.56,326.46,94.6,326.46,98.02z"/>
</g>
<g>
</g>
<g>
</g>
<g>
</g>
<g>
</g>
<g>
</g>
<g>
</g>
<g>
</g>
<g>
</g>
<g>
</g>
<g>
</g>
<g>
</g>
<g>
</g>
<g>
</g>
<g>
</g>
<g>
</g>
</svg>
