<?xml version="1.0" encoding="utf-8"?>
<!-- Generator: Adobe Illustrator 25.3.1, SVG Export Plug-In . SVG Version: 6.00 Build 0)  -->
<svg version="1.1" id="图层_1" xmlns="http://www.w3.org/2000/svg" xmlns:xlink="http://www.w3.org/1999/xlink" x="0px" y="0px"
	 viewBox="0 0 240 150" style="enable-background:new 0 0 240 150;" xml:space="preserve">
<g>
	<path d="M10.01,111.08V30.14c0-3.74,0.83-6.56,2.5-8.48c1.66-1.91,3.91-2.87,6.73-2.87c2.83,0,5.1,0.95,6.84,2.84
		c1.73,1.89,2.6,4.73,2.6,8.51v80.94c0,3.78-0.88,6.62-2.63,8.51c-1.75,1.89-4.02,2.84-6.8,2.84c-2.73,0-4.96-0.98-6.67-2.94
		S10.01,114.72,10.01,111.08z"/>
	<path d="M57.38,37.86c-2.6,0-4.82-0.8-6.67-2.39c-1.85-1.59-2.77-3.85-2.77-6.77c0-2.64,0.95-4.82,2.84-6.53
		c1.89-1.71,4.09-2.56,6.6-2.56c2.42,0,4.56,0.78,6.43,2.32c1.87,1.55,2.8,3.81,2.8,6.77c0,2.87-0.91,5.12-2.73,6.73
		C62.05,37.05,59.89,37.86,57.38,37.86z M66.61,57.14v53.94c0,3.74-0.89,6.56-2.67,8.48s-4.03,2.87-6.77,2.87s-4.96-0.98-6.67-2.94
		s-2.56-4.76-2.56-8.41V57.69c0-3.69,0.85-6.47,2.56-8.34c1.71-1.87,3.93-2.8,6.67-2.8s4.99,0.93,6.77,2.8
		C65.72,51.22,66.61,53.81,66.61,57.14z"/>
	<path d="M103.12,29.45v28.51c3.51-3.65,7.09-6.44,10.73-8.37c3.64-1.94,8.16-2.91,13.54-2.91c6.2,0,11.63,1.47,16.3,4.41
		s8.29,7.2,10.87,12.78c2.57,5.58,3.86,12.2,3.86,19.86c0,5.65-0.72,10.83-2.15,15.55s-3.52,8.81-6.25,12.27
		c-2.73,3.46-6.05,6.14-9.95,8.03s-8.19,2.84-12.88,2.84c-2.87,0-5.57-0.34-8.1-1.03s-4.68-1.58-6.46-2.7
		c-1.78-1.12-3.29-2.27-4.55-3.45c-1.25-1.18-2.9-2.96-4.96-5.33v1.85c0,3.51-0.84,6.16-2.53,7.96c-1.69,1.8-3.83,2.7-6.43,2.7
		c-2.64,0-4.75-0.9-6.32-2.7s-2.36-4.45-2.36-7.96V30.27c0-3.78,0.76-6.64,2.29-8.58c1.53-1.94,3.66-2.91,6.39-2.91
		c2.87,0,5.08,0.92,6.63,2.77C102.34,23.4,103.12,26.04,103.12,29.45z M104,84.89c0,7.43,1.7,13.14,5.09,17.12
		c3.39,3.99,7.85,5.98,13.37,5.98c4.69,0,8.74-2.04,12.13-6.12c3.39-4.08,5.09-9.92,5.09-17.53c0-4.92-0.71-9.16-2.12-12.71
		c-1.41-3.55-3.42-6.3-6.02-8.24c-2.6-1.94-5.63-2.91-9.09-2.91c-3.55,0-6.72,0.97-9.5,2.91c-2.78,1.94-4.97,4.74-6.56,8.41
		C104.8,75.47,104,79.83,104,84.89z"/>
	<path d="M233.48,98.02c0,5.15-1.25,9.56-3.76,13.23c-2.51,3.67-6.21,6.45-11.11,8.34c-4.9,1.89-10.86,2.84-17.88,2.84
		c-6.7,0-12.44-1.03-17.23-3.08s-8.32-4.61-10.6-7.69c-2.28-3.08-3.42-6.16-3.42-9.26c0-2.05,0.73-3.8,2.19-5.26
		c1.46-1.46,3.3-2.19,5.54-2.19c1.96,0,3.46,0.48,4.51,1.44c1.05,0.96,2.05,2.3,3.01,4.03c1.91,3.33,4.2,5.81,6.87,7.45
		s6.3,2.46,10.9,2.46c3.74,0,6.8-0.83,9.19-2.5c2.39-1.66,3.59-3.57,3.59-5.71c0-3.28-1.24-5.67-3.73-7.18
		c-2.48-1.5-6.57-2.94-12.27-4.31c-6.43-1.59-11.66-3.27-15.69-5.02c-4.03-1.75-7.26-4.07-9.67-6.94c-2.42-2.87-3.62-6.4-3.62-10.6
		c0-3.74,1.12-7.27,3.35-10.6c2.23-3.33,5.53-5.98,9.88-7.96c4.35-1.98,9.6-2.97,15.76-2.97c4.83,0,9.17,0.5,13.02,1.5
		c3.85,1,7.06,2.35,9.64,4.03c2.57,1.69,4.53,3.55,5.88,5.61c1.34,2.05,2.02,4.06,2.02,6.02c0,2.14-0.72,3.9-2.15,5.26
		s-3.48,2.05-6.12,2.05c-1.91,0-3.54-0.55-4.89-1.64c-1.34-1.09-2.88-2.73-4.61-4.92c-1.41-1.82-3.08-3.28-4.99-4.38
		s-4.51-1.64-7.79-1.64c-3.37,0-6.18,0.72-8.41,2.15c-2.23,1.44-3.35,3.22-3.35,5.37c0,1.96,0.82,3.57,2.46,4.82
		c1.64,1.25,3.85,2.29,6.63,3.11c2.78,0.82,6.61,1.82,11.48,3.01c5.79,1.41,10.52,3.1,14.18,5.06c3.67,1.96,6.45,4.27,8.34,6.94
		C232.53,91.56,233.48,94.6,233.48,98.02z"/>
</g>
<g>
</g>
<g>
</g>
<g>
</g>
<g>
</g>
<g>
</g>
<g>
</g>
<g>
</g>
<g>
</g>
<g>
</g>
<g>
</g>
<g>
</g>
<g>
</g>
<g>
</g>
<g>
</g>
<g>
</g>
</svg>
