<?xml version="1.0" encoding="utf-8"?>
<!-- Generator: Adobe Illustrator 25.3.1, SVG Export Plug-In . SVG Version: 6.00 Build 0)  -->
<svg width="150" height="150" version="1.1" id="图层_1" xmlns="http://www.w3.org/2000/svg" xmlns:xlink="http://www.w3.org/1999/xlink" x="0px" y="0px"
	 viewBox="0 0 150 150" style="enable-background:new 0 0 150 150;" xml:space="preserve">
<style type="text/css">
	.st0{display:none;fill:#FEFEFE;}
	.st1{display:none;fill:#F6F6F6;}
	.st2{display:none;fill:#D7D7D7;}
	.st3{display:none;fill:#CBCBCB;}
</style>
<g>
	<path class="st0" d="M77.27,0.49c23.97,0,47.94,0,71.91-0.02c0.64,0,0.82,0.08,0.82,0.78c-0.02,49.41-0.02,98.82-0.01,148.22
		c0,0.61-0.14,0.75-0.75,0.75c-49.34-0.02-98.69-0.02-148.03,0.01c-0.7,0-0.78-0.18-0.78-0.82c0.02-23.58,0.02-47.15,0.02-70.73
		c0.1-0.07,0.19-0.06,0.28,0.02c0.32,0.41,0.34,0.9,0.37,1.39c0.4,6.96,1.87,13.7,4.23,20.25c2.67,7.4,6.44,14.19,11.27,20.41
		c5.91,7.6,13.04,13.77,21.35,18.62c7.18,4.2,14.87,7.01,23,8.64c5.4,1.08,10.86,1.55,16.36,1.32c2.33-0.1,3.95-1.56,5.31-3.31
		c1.47-1.88,1.75-4.11,1.8-6.39c0.05-2.32,0.1-4.64,0.04-6.95c-0.14-5.06-0.18-10.12-0.14-15.17c0.05-6.82-0.06-13.64,0.01-20.46
		c0.03-2.9-0.05-5.81-0.01-8.71c0.02-1.8,1.98-3.89,3.79-4.03c0.26-0.02,0.52-0.01,0.78-0.01c12.25,0,24.5,0.01,36.74-0.02
		c1.38,0,2.36,0.54,3.22,1.52c0.78,0.89,0.96,1.83,0.66,2.99c-1.84,7.14-4.91,13.7-9.31,19.61c-1.44,1.94-2.19,3.99-2.13,6.44
		c0.12,4.6,4.09,8.59,8.69,8.66c3.17,0.05,5.71-1.1,7.63-3.62c2.35-3.07,4.39-6.32,6.23-9.72c2.76-5.11,4.83-10.49,6.33-16.09
		c1.07-4.01,1.77-8.09,2.2-12.23c0.29-2.83,0.26-5.67,0.16-8.51c-0.06-1.79-1.01-3.25-2.21-4.47c-1.56-1.6-3.41-2.59-5.78-2.71
		c-4.51-0.23-9-0.1-13.51-0.07c-5.19,0.03-10.38,0-15.57,0c-6.59,0-13.19-0.01-19.78,0c-1.44,0-2.87,0.05-4.31-0.01
		c-1.96-0.08-3.82-2.04-3.83-4c-0.03-5.09,0.03-10.18,0.01-15.27c-0.02-5.06-0.01-10.12-0.05-15.17
		c-0.05-6.79,0.26-13.58,0.16-20.37c-0.04-2.6-0.32-5.16-2.09-7.28c-1.18-1.41-2.6-2.46-4.38-3C77.71,0.9,77.28,0.98,77.27,0.49z"/>
	<path d="M77.27,0.49c1.81,0.52,3.48,1.3,4.75,2.72c1.48,1.65,2.47,3.52,2.5,5.82c0.23,17.71,0,35.41,0.08,53.12
		c0.01,1.77,1.91,3.7,3.67,3.7c13.71-0.01,27.43-0.02,41.14-0.03c3.42,0,6.84-0.05,10.26-0.01c2.2,0.03,4.36,0.26,6.24,1.66
		c2.72,2.03,3.8,4.7,3.78,8.07c-0.09,11.22-2.6,21.85-7.43,31.96c-2.16,4.52-4.75,8.77-7.82,12.73c-2.3,2.98-5.45,4.06-9,3.43
		c-3.8-0.68-6.44-3.08-7.39-6.89c-0.69-2.75-0.36-5.45,1.44-7.84c4.64-6.15,7.94-12.94,9.78-20.43c0.44-1.77-1.19-3.91-3.04-3.91
		c-8.68-0.01-17.37,0-26.05-0.01c-3.94,0-7.87,0-11.81-0.01c-1.89,0-3.79,1.91-3.79,3.82c0,13.54-0.02,27.08,0.02,40.61
		c0.01,3.49,0.05,6.98,0.01,10.47c-0.02,2.12-0.17,4.21-1.38,6.05c-1.69,2.57-3.86,4.13-7.13,4.14
		c-16.8,0.05-32.04-4.76-45.47-14.83C14.81,122.95,5.26,107.09,1.69,87.62c-0.54-2.95-0.72-5.95-1.04-8.94
		c-0.21-0.94-0.04-1.9-0.1-2.85c-0.21-2.53,0.2-4.9,1.94-6.86c1.83-2.05,3.99-3.33,6.89-3.36c2.48-0.02,4.73,0.37,6.66,2.02
		c2.12,1.8,3.37,4.03,3.5,6.84c0.25,5.29,0.68,10.54,2.18,15.67c2.19,7.54,5.72,14.35,10.73,20.4c5.03,6.08,11.11,10.83,18.16,14.35
		c3.6,1.8,7.39,3.15,11.3,4.12c1.55,0.38,3.5-1.04,3.68-2.69c0.05-0.45,0.02-0.91,0.02-1.37c0-38.41,0.01-76.82-0.01-115.23
		c0-3.67,1.61-6.37,4.61-8.33c0.82-0.53,1.69-0.84,2.67-0.8c0.54-0.05,1.1,0.11,1.63-0.1c0.2,0,0.39,0,0.59,0
		c0.39,0.16,0.78,0.16,1.18,0C76.62,0.49,76.95,0.49,77.27,0.49z"/>
	<path class="st0" d="M72.96,0.66c-3.38,0.73-5.43,2.9-6.66,6.02c-0.46,1.18-0.4,2.42-0.4,3.64c0,38.51,0,77.02,0.01,115.52
		c0,2.37-2.03,4.02-4.27,3.38c-21.66-6.16-35.33-20.15-40.91-41.97c-0.91-3.55-1.26-7.2-1.33-10.86c-0.05-2.56-0.32-5.02-2.08-7.09
		c-1.76-2.07-3.86-3.28-6.67-3.41c-3.02-0.13-5.57,0.66-7.62,2.88c-1.81,1.96-2.53,4.32-2.4,6.96c-0.06,0.09-0.11,0.09-0.17,0
		c0-24.81,0-49.61-0.02-74.42c0-0.7,0.14-0.85,0.85-0.85c23.89,0.02,47.79,0.02,71.68,0.02c0.07,0.04,0.09,0.08,0.06,0.12
		C73,0.64,72.98,0.66,72.96,0.66z"/>
	<path class="st1" d="M0.45,75.74c0.06,0,0.11,0,0.17,0c0.01,0.98,0.02,1.96,0.03,2.94c-0.07,0-0.13,0-0.2,0
		C0.45,77.7,0.45,76.72,0.45,75.74z"/>
	<path class="st2" d="M72.96,0.66c0-0.06,0.01-0.11,0.01-0.17"/>
	<path class="st3" d="M75.12,0.49"/>
	<path d="M28.01,20.8c5.5-0.47,9.3,4.56,9.33,8.31c0.06,5.77-3.67,10.32-8.39,10.34c-5.62,0.03-9.97-3.79-10.28-8.45
		C18.24,24.84,23.34,20.24,28.01,20.8z"/>
</g>
</svg>
