<?xml version="1.0" encoding="utf-8"?>
<!-- Generator: Adobe Illustrator 25.3.1, SVG Export Plug-In . SVG Version: 6.00 Build 0)  -->
<svg version="1.1" id="图层_1" xmlns="http://www.w3.org/2000/svg" xmlns:xlink="http://www.w3.org/1999/xlink" x="0px" y="0px"
	 viewBox="0 0 450 150" style="enable-background:new 0 0 450 150;" xml:space="preserve">
<style type="text/css">
	.st0{fill:#FE9600;}
	.st1{display:none;fill:#FEFEFE;}
	.st2{display:none;fill:#F6F6F6;}
	.st3{display:none;fill:#D7D7D7;}
	.st4{display:none;fill:#CBCBCB;}
</style>
<g>
	<path class="st0" d="M174.51,37.86c-2.6,0-4.82-0.8-6.67-2.39c-1.85-1.59-2.77-3.85-2.77-6.77c0-2.64,0.95-4.82,2.84-6.53
		c1.89-1.71,4.09-2.56,6.6-2.56c2.42,0,4.56,0.78,6.43,2.32c1.87,1.55,2.8,3.81,2.8,6.77c0,2.87-0.91,5.12-2.73,6.73
		C179.18,37.05,177.02,37.86,174.51,37.86z M183.74,57.14v53.94c0,3.74-0.89,6.56-2.67,8.48s-4.03,2.87-6.77,2.87
		s-4.96-0.98-6.67-2.94s-2.56-4.76-2.56-8.41V57.69c0-3.69,0.85-6.47,2.56-8.34c1.71-1.87,3.93-2.8,6.67-2.8s4.99,0.93,6.77,2.8
		C182.85,51.22,183.74,53.81,183.74,57.14z"/>
	<path d="M221.27,30.14v27.69c2.37-2.73,4.68-4.9,6.94-6.49c2.26-1.59,4.75-2.79,7.49-3.59c2.73-0.8,5.67-1.2,8.82-1.2
		c4.74,0,8.94,1,12.61,3.01c3.67,2.01,6.55,4.92,8.65,8.75c1.32,2.23,2.21,4.73,2.67,7.49c0.46,2.76,0.68,5.94,0.68,9.54v35.75
		c0,3.74-0.85,6.56-2.56,8.48s-3.98,2.87-6.8,2.87c-6.15,0-9.23-3.78-9.23-11.35V79.56c0-5.97-0.89-10.56-2.67-13.77
		s-5.15-4.82-10.12-4.82c-3.33,0-6.32,0.95-8.99,2.84c-2.67,1.89-4.66,4.48-5.98,7.76c-1,2.78-1.5,7.72-1.5,14.83v24.68
		c0,3.69-0.83,6.51-2.5,8.44c-1.66,1.94-3.98,2.91-6.94,2.91c-6.15,0-9.23-3.78-9.23-11.35V30.14c0-3.78,0.81-6.62,2.43-8.51
		c1.62-1.89,3.88-2.84,6.8-2.84c2.96,0,5.27,0.96,6.94,2.87C220.44,23.58,221.27,26.4,221.27,30.14z"/>
	<path d="M336.04,111.9v-2.39c-2.23,2.83-4.58,5.2-7.04,7.11s-5.15,3.34-8.07,4.27c-2.92,0.93-6.24,1.4-9.98,1.4
		c-4.51,0-8.56-0.93-12.13-2.8c-3.58-1.87-6.35-4.44-8.31-7.72c-2.32-3.96-3.49-9.66-3.49-17.09V57.69c0-3.74,0.84-6.53,2.53-8.37
		c1.69-1.85,3.92-2.77,6.7-2.77c2.83,0,5.1,0.93,6.84,2.8c1.73,1.87,2.6,4.65,2.6,8.34v29.87c0,4.33,0.36,7.96,1.09,10.9
		c0.73,2.94,2.04,5.24,3.93,6.9c1.89,1.66,4.45,2.5,7.69,2.5c3.14,0,6.11-0.93,8.89-2.8c2.78-1.87,4.81-4.31,6.08-7.31
		c1.05-2.64,1.57-8.43,1.57-17.36V57.69c0-3.69,0.87-6.47,2.6-8.34c1.73-1.87,3.99-2.8,6.77-2.8c2.78,0,5.01,0.92,6.7,2.77
		c1.69,1.85,2.53,4.64,2.53,8.37v54.07c0,3.55-0.81,6.22-2.43,8c-1.62,1.78-3.7,2.67-6.25,2.67c-2.55,0-4.66-0.92-6.32-2.77
		C336.88,117.81,336.04,115.22,336.04,111.9z"/>
	<path d="M389.37,29.45v28.51c3.51-3.65,7.09-6.44,10.73-8.37c3.65-1.94,8.16-2.91,13.54-2.91c6.2,0,11.63,1.47,16.3,4.41
		c4.67,2.94,8.29,7.2,10.87,12.78c2.57,5.58,3.86,12.2,3.86,19.86c0,5.65-0.72,10.83-2.15,15.55s-3.52,8.81-6.25,12.27
		c-2.73,3.46-6.05,6.14-9.95,8.03s-8.19,2.84-12.89,2.84c-2.87,0-5.57-0.34-8.1-1.03s-4.68-1.58-6.46-2.7
		c-1.78-1.12-3.29-2.27-4.55-3.45c-1.25-1.18-2.91-2.96-4.96-5.33v1.85c0,3.51-0.84,6.16-2.53,7.96c-1.69,1.8-3.83,2.7-6.43,2.7
		c-2.64,0-4.75-0.9-6.32-2.7s-2.36-4.45-2.36-7.96V30.27c0-3.78,0.76-6.64,2.29-8.58c1.53-1.94,3.66-2.91,6.39-2.91
		c2.87,0,5.08,0.92,6.63,2.77C388.59,23.4,389.37,26.04,389.37,29.45z M390.25,84.89c0,7.43,1.7,13.14,5.09,17.12
		c3.39,3.99,7.85,5.98,13.36,5.98c4.69,0,8.74-2.04,12.13-6.12c3.39-4.08,5.09-9.92,5.09-17.53c0-4.92-0.71-9.16-2.12-12.71
		c-1.41-3.55-3.42-6.3-6.02-8.24c-2.6-1.94-5.63-2.91-9.09-2.91c-3.55,0-6.72,0.97-9.5,2.91c-2.78,1.94-4.97,4.74-6.56,8.41
		C391.05,75.47,390.25,79.83,390.25,84.89z"/>
</g>
<g>
	<path class="st1" d="M76.84,0.14c23.97,0,47.94,0,71.91-0.02c0.64,0,0.82,0.08,0.82,0.78c-0.02,49.41-0.02,98.82-0.01,148.22
		c0,0.61-0.14,0.75-0.75,0.75c-49.34-0.02-98.69-0.02-148.03,0.01c-0.7,0-0.78-0.18-0.78-0.82c0.02-23.58,0.02-47.15,0.02-70.73
		c0.1-0.07,0.19-0.06,0.28,0.02c0.32,0.41,0.34,0.9,0.37,1.39c0.4,6.96,1.87,13.7,4.23,20.25c2.67,7.4,6.44,14.19,11.27,20.41
		c5.91,7.6,13.04,13.77,21.35,18.62c7.18,4.2,14.87,7.01,23,8.64c5.4,1.08,10.86,1.55,16.36,1.32c2.33-0.1,3.95-1.56,5.31-3.31
		c1.47-1.88,1.75-4.11,1.8-6.39c0.05-2.32,0.1-4.64,0.04-6.95c-0.14-5.06-0.18-10.12-0.14-15.17c0.05-6.82-0.06-13.64,0.01-20.46
		c0.03-2.9-0.05-5.81-0.01-8.71c0.02-1.8,1.98-3.89,3.79-4.03c0.26-0.02,0.52-0.01,0.78-0.01c12.25,0,24.5,0.01,36.74-0.02
		c1.38,0,2.36,0.54,3.22,1.52c0.78,0.89,0.96,1.83,0.66,2.99c-1.84,7.14-4.91,13.7-9.31,19.61c-1.44,1.94-2.19,3.99-2.13,6.44
		c0.12,4.6,4.09,8.59,8.69,8.66c3.17,0.05,5.71-1.1,7.63-3.62c2.35-3.07,4.39-6.32,6.23-9.72c2.76-5.11,4.83-10.49,6.33-16.09
		c1.07-4.01,1.77-8.09,2.2-12.23c0.29-2.83,0.26-5.67,0.16-8.51c-0.06-1.79-1.01-3.25-2.21-4.47c-1.56-1.6-3.41-2.59-5.78-2.71
		c-4.51-0.23-9-0.1-13.51-0.07c-5.19,0.03-10.38,0-15.57,0c-6.59,0-13.19-0.01-19.78,0c-1.44,0-2.87,0.05-4.31-0.01
		c-1.96-0.08-3.82-2.04-3.83-4c-0.03-5.09,0.03-10.18,0.01-15.27c-0.02-5.06-0.01-10.12-0.05-15.17
		c-0.05-6.79,0.26-13.58,0.16-20.37c-0.04-2.6-0.32-5.16-2.09-7.28c-1.18-1.41-2.6-2.46-4.38-3C77.28,0.55,76.85,0.63,76.84,0.14z"
		/>
	<path d="M76.84,0.14c1.81,0.52,3.48,1.3,4.75,2.72c1.48,1.65,2.47,3.52,2.5,5.82c0.23,17.71,0,35.41,0.08,53.12
		c0.01,1.77,1.91,3.7,3.67,3.7c13.71-0.01,27.43-0.02,41.14-0.03c3.42,0,6.84-0.05,10.26-0.01c2.2,0.03,4.36,0.26,6.24,1.66
		c2.72,2.03,3.8,4.7,3.78,8.07c-0.09,11.22-2.6,21.85-7.43,31.96c-2.16,4.52-4.75,8.77-7.82,12.73c-2.3,2.98-5.45,4.06-9,3.43
		c-3.8-0.68-6.44-3.08-7.39-6.89c-0.69-2.75-0.36-5.45,1.44-7.84c4.64-6.15,7.94-12.94,9.78-20.43c0.44-1.77-1.19-3.91-3.04-3.91
		c-8.68-0.01-17.37,0-26.05-0.01c-3.94,0-7.87,0-11.81-0.01c-1.89,0-3.79,1.91-3.79,3.82c0,13.54-0.02,27.08,0.02,40.61
		c0.01,3.49,0.05,6.98,0.01,10.47c-0.02,2.12-0.17,4.21-1.38,6.05c-1.69,2.57-3.86,4.13-7.13,4.14
		c-16.8,0.05-32.04-4.76-45.47-14.83C14.38,122.6,4.83,106.74,1.26,87.27c-0.54-2.95-0.72-5.95-1.04-8.94
		c-0.21-0.94-0.04-1.9-0.1-2.85c-0.21-2.53,0.2-4.9,1.94-6.86c1.83-2.05,3.99-3.33,6.89-3.36c2.48-0.02,4.73,0.37,6.66,2.02
		c2.12,1.8,3.37,4.03,3.5,6.84c0.25,5.29,0.68,10.54,2.18,15.67c2.19,7.54,5.72,14.35,10.73,20.4c5.03,6.08,11.11,10.83,18.16,14.35
		c3.6,1.8,7.39,3.15,11.3,4.12c1.55,0.38,3.5-1.04,3.68-2.69c0.05-0.45,0.02-0.91,0.02-1.37c0-38.41,0.01-76.82-0.01-115.23
		c0-3.67,1.61-6.37,4.61-8.33c0.82-0.53,1.69-0.84,2.67-0.8c0.54-0.05,1.1,0.11,1.63-0.1c0.2,0,0.39,0,0.59,0
		c0.39,0.16,0.78,0.16,1.18,0C76.19,0.14,76.52,0.14,76.84,0.14z"/>
	<path class="st1" d="M72.53,0.31c-3.38,0.73-5.43,2.9-6.66,6.02c-0.46,1.18-0.4,2.42-0.4,3.64c0,38.51,0,77.02,0.01,115.52
		c0,2.37-2.03,4.02-4.27,3.38c-21.66-6.16-35.33-20.15-40.91-41.97c-0.91-3.55-1.26-7.2-1.33-10.86c-0.05-2.56-0.32-5.02-2.08-7.09
		c-1.76-2.07-3.86-3.28-6.67-3.41c-3.02-0.13-5.57,0.66-7.62,2.88c-1.81,1.96-2.53,4.32-2.4,6.96c-0.06,0.09-0.11,0.09-0.17,0
		c0-24.81,0-49.61-0.02-74.42c0-0.7,0.14-0.85,0.85-0.85c23.89,0.02,47.79,0.02,71.68,0.02c0.07,0.04,0.09,0.08,0.06,0.12
		C72.57,0.29,72.55,0.31,72.53,0.31z"/>
	<path class="st2" d="M0.02,75.39c0.06,0,0.11,0,0.17,0c0.01,0.98,0.02,1.96,0.03,2.94c-0.07,0-0.13,0-0.2,0
		C0.02,77.35,0.02,76.37,0.02,75.39z"/>
	<path class="st3" d="M72.53,0.31c0-0.06,0.01-0.11,0.01-0.17"/>
	<path class="st4" d="M74.69,0.14"/>
	<path d="M27.57,20.45c5.5-0.47,9.3,4.56,9.33,8.31c0.06,5.77-3.67,10.32-8.39,10.34c-5.62,0.03-9.97-3.79-10.28-8.45
		C17.81,24.49,22.91,19.89,27.57,20.45z"/>
</g>
<g>
	<path d="M161.16,133.66h13.15c0.44,0.27,0.44,0.53,0,0.8h-6.11v12.48h7.17c0.44,0.27,0.44,0.53,0,0.8H160.1
		c-0.44-0.27-0.44-0.53,0-0.8h7.3v-12.48h-6.24C160.72,134.2,160.72,133.93,161.16,133.66z"/>
	<path d="M190.62,137.12c0.44-0.44,0.89-0.44,1.33,0c1.24,1.15,2.39,2.35,3.45,3.59c0.09,0.44-0.13,0.62-0.66,0.53
		c-1.06-1.15-2.08-2.21-3.05-3.19c-0.27-0.27-0.53-0.27-0.8,0c-0.89,1.24-2.04,2.3-3.45,3.19c-0.44,0.09-0.58-0.13-0.4-0.66
		C188.27,139.77,189.47,138.62,190.62,137.12z M189.95,133.13c0.44-0.27,0.66-0.09,0.66,0.53c-0.8,1.24-1.73,2.21-2.79,2.92
		c-0.53,0.09-0.71-0.13-0.53-0.66C188.45,135.04,189.33,134.11,189.95,133.13z M189.56,140.97h3.32c0.97,0,1.42,0.44,1.33,1.33v4.25
		c0.09,0.97-0.35,1.42-1.33,1.33h-3.32c-0.89,0.09-1.33-0.35-1.33-1.33v-4.25C188.23,141.41,188.67,140.97,189.56,140.97z
		 M193.41,142.56c0.09-0.53-0.18-0.8-0.8-0.8h-2.79c-0.53,0-0.8,0.27-0.8,0.8v3.59c0,0.71,0.27,1.02,0.8,0.93h2.79
		c0.62,0.09,0.89-0.18,0.8-0.8V142.56z M191.81,133.8c-0.09-0.62,0.13-0.84,0.66-0.66c0.89,0.89,1.68,1.82,2.39,2.79
		c0,0.62-0.22,0.84-0.66,0.66C193.5,135.61,192.7,134.68,191.81,133.8z M199.12,136.05v3.85c1.06,3.45,2.3,6.02,3.72,7.7
		c0.18,0.53,0,0.75-0.53,0.66c-1.42-1.59-2.57-3.85-3.45-6.77c-0.71,2.83-1.95,5.09-3.72,6.77c-0.44,0.09-0.62-0.13-0.53-0.66
		c1.86-1.68,3.1-4.25,3.72-7.7v-3.85C198.59,135.7,198.85,135.7,199.12,136.05z M196.99,134.59h4.12c1.77,0.09,1.95,1.51,0.53,4.25
		c-0.53,0.27-0.8,0.18-0.8-0.27c1.15-2.12,1.24-3.19,0.27-3.19h-4.38c-0.35,1.06-0.84,2.12-1.46,3.19c-0.44,0.18-0.66,0.04-0.66-0.4
		c1.06-1.95,1.73-3.72,1.99-5.31c0.35-0.35,0.62-0.27,0.8,0.27C197.3,133.58,197.17,134.06,196.99,134.59z"/>
	<path d="M218.22,133.13c0-0.53,0.22-0.71,0.66-0.53c0.44,0.71,0.84,1.42,1.2,2.12h4.52c0.62-0.88,1.02-1.59,1.2-2.12
		c0.44-0.27,0.71-0.18,0.8,0.27c-0.18,0.53-0.53,1.15-1.06,1.86h3.45c0.35,0.27,0.35,0.53,0,0.8h-6.64v1.33h5.71
		c0.35,0.27,0.35,0.53,0,0.8h-5.71v1.33h6.91c0.35,0.27,0.35,0.53,0,0.8h-2.39c-0.09,0.53-0.31,1.24-0.66,2.12h3.72
		c0.35,0.27,0.35,0.53,0,0.8H214.9c-0.44-0.27-0.44-0.53,0-0.8h3.32c-0.18-0.62-0.44-1.33-0.8-2.12h-2.26
		c-0.35-0.27-0.35-0.53,0-0.8h6.38v-1.33h-5.18c-0.35-0.27-0.35-0.53,0-0.8h5.18v-1.33h-6.11c-0.35-0.27-0.35-0.53,0-0.8h3.72
		C218.88,134.2,218.57,133.66,218.22,133.13z M217.55,143.49h9.3c0.97,0,1.42,0.44,1.33,1.33v2.12c0.09,0.97-0.35,1.42-1.33,1.33
		h-9.3c-0.89,0.09-1.33-0.35-1.33-1.33v-2.12C216.22,143.94,216.67,143.49,217.55,143.49z M226.58,144.29h-8.77
		c-0.53,0-0.8,0.27-0.8,0.8v1.59c0,0.62,0.27,0.88,0.8,0.8h8.77c0.62,0.09,0.89-0.18,0.8-0.8v-1.59
		C227.47,144.55,227.2,144.29,226.58,144.29z M221.54,139.77h-3.32c0.27,0.62,0.53,1.33,0.8,2.12h2.52V139.77z M226.05,139.77h-3.72
		v2.12h2.92C225.61,141.1,225.87,140.39,226.05,139.77z"/>
	<path d="M244.75,133.13c0.27-0.35,0.53-0.35,0.8,0v1.33h7.44v-1.33c0.27-0.35,0.53-0.35,0.8,0v1.33h2.66c0.35,0.27,0.35,0.53,0,0.8
		h-2.66v8.5h3.19c0.35,0.27,0.35,0.53,0,0.8H241.7c-0.35-0.27-0.35-0.53,0-0.8h3.05v-8.5h-2.39c-0.35-0.27-0.35-0.53,0-0.8h2.39
		V133.13z M247.28,145.09c0.44-0.09,0.62,0.13,0.53,0.66c-1.59,1.15-3.19,1.99-4.78,2.52c-0.53-0.18-0.58-0.49-0.13-0.93
		C244.22,146.9,245.68,146.15,247.28,145.09z M252.99,135.26h-7.44v2.26h7.44V135.26z M252.99,138.31h-7.44v2.26h7.44V138.31z
		 M252.99,141.37h-7.44v2.39h7.44V141.37z M251.53,144.95c1.86,0.89,3.28,1.77,4.25,2.66c0.18,0.53-0.04,0.75-0.66,0.66
		c-1.24-0.97-2.57-1.82-3.98-2.52C250.86,145.31,250.99,145.04,251.53,144.95z"/>
	<path d="M276.2,133c0.27-0.44,0.53-0.44,0.8,0v0.8h6.64c0.35,0.27,0.35,0.53,0,0.8H277v1.06h4.25c0.97,0,1.42,0.44,1.33,1.33v0.8
		c0.09,0.97-0.35,1.42-1.33,1.33H277v1.06h4.12c1.06,0,1.55,0.44,1.46,1.33v1.06h1.59c0.35,0.27,0.35,0.53,0,0.8h-1.59v1.06
		c0.09,0.97-0.49,1.42-1.73,1.33H277v0.93c0.09,1.24-0.44,1.81-1.59,1.73c-0.89-0.09-1.77-0.31-2.66-0.66
		c-0.27-0.44-0.18-0.71,0.27-0.8c0.97,0.35,1.73,0.58,2.26,0.66c0.71,0.09,1.02-0.22,0.93-0.93v-0.93h-5.84
		c-0.35-0.27-0.35-0.53,0-0.8h5.84v-1.59h-7.44c-0.35-0.27-0.35-0.53,0-0.8h7.44v-1.59h-5.84c-0.27-0.27-0.27-0.53,0-0.8h5.84v-1.06
		h-4.25c-0.89,0.09-1.33-0.35-1.33-1.33v-0.8c0-0.88,0.44-1.33,1.33-1.33h4.25v-1.06h-6.91c-0.35-0.27-0.35-0.53,0-0.8h6.91V133z
		 M276.2,136.45h-3.98c-0.53,0-0.8,0.27-0.8,0.8v0.27c0,0.62,0.27,0.89,0.8,0.8h3.98V136.45z M280.98,136.45H277v1.86h3.98
		c0.62,0.09,0.88-0.18,0.8-0.8v-0.4C281.87,136.67,281.6,136.45,280.98,136.45z M280.98,140.97H277v1.59h4.78v-0.8
		C281.87,141.23,281.6,140.97,280.98,140.97z M281.78,143.36H277v1.59h3.85c0.71,0.09,1.02-0.18,0.93-0.8V143.36z"/>
	<path d="M299.28,148.47v-16.93h0.4v16.93H299.28z"/>
	<path d="M316.92,136.32c-0.09,3.37-0.53,6.2-1.33,8.5c-0.44,0.27-0.71,0.18-0.8-0.27c0.8-2.57,1.24-5.31,1.33-8.23
		C316.39,135.97,316.66,135.97,316.92,136.32z M326.62,133.53c-0.35,6.38-2.75,10.58-7.17,12.62c0.09,0.53,0.53,0.75,1.33,0.66h4.65
		c1.06,0.09,1.5-1.15,1.33-3.72c0.27-0.44,0.53-0.44,0.8,0c0.18,3.19-0.44,4.69-1.86,4.52h-5.18c-1.15,0.09-1.77-0.31-1.86-1.2
		c-0.97,0.44-2.08,0.75-3.32,0.93c-0.53-0.18-0.58-0.44-0.13-0.8c1.15-0.18,2.3-0.49,3.45-0.93v-10.76c0.35-0.44,0.62-0.44,0.8,0
		v10.36c3.9-1.95,6.02-5.84,6.38-11.69C326.09,133.18,326.35,133.18,326.62,133.53z M320.38,133.66c0-0.53,0.22-0.66,0.66-0.4
		c1.15,2.39,2.04,4.74,2.66,7.04c-0.18,0.53-0.44,0.62-0.8,0.27C322.37,138.45,321.53,136.14,320.38,133.66z M328.21,136.32
		c0.97,3.01,1.68,5.93,2.12,8.77c-0.18,0.53-0.44,0.58-0.8,0.13c-0.53-2.83-1.24-5.71-2.12-8.63
		C327.5,136.05,327.77,135.97,328.21,136.32z"/>
	<path d="M349.97,133v2.92h6.11c0.35,0.27,0.35,0.53,0,0.8h-6.11v3.45h6.91c0.35,0.27,0.35,0.53,0,0.8h-5.05v5.58
		c0,0.8,0.35,1.15,1.06,1.06h2.12c1.06,0.18,1.5-0.8,1.33-2.92c0.27-0.27,0.53-0.27,0.8,0c0.18,2.66-0.49,3.9-1.99,3.72h-2.52
		c-1.06,0.09-1.59-0.44-1.59-1.59v-5.84h-3.19c-0.09,4.16-1.86,6.64-5.31,7.44c-0.44-0.18-0.49-0.44-0.13-0.8
		c3.1-0.8,4.65-3.01,4.65-6.64h-4.52c-0.35-0.18-0.35-0.44,0-0.8h6.64v-3.45h-4.38c-0.71,1.24-1.33,2.08-1.86,2.52
		c-0.44,0.09-0.66-0.09-0.66-0.53c1.42-1.5,2.43-3.28,3.05-5.31c0.44-0.18,0.71-0.09,0.8,0.27c-0.27,0.8-0.58,1.55-0.93,2.26h3.98
		V133C349.43,132.65,349.7,132.65,349.97,133z"/>
	<path d="M377.3,132.87c0.35,0.18,0.35,0.44,0,0.8c-1.15,0.09-2.21,0.18-3.19,0.27v3.05h3.72c0.35,0.27,0.35,0.53,0,0.8h-3.59
		c1.33,1.77,2.48,3.41,3.45,4.91c0,0.53-0.22,0.66-0.66,0.4c-0.97-1.42-1.95-2.83-2.92-4.25v9.43c-0.27,0.44-0.53,0.44-0.8,0v-8.63
		c-0.8,1.86-2.04,3.5-3.72,4.91c-0.44,0.09-0.62-0.09-0.53-0.53c1.95-1.77,3.32-3.85,4.12-6.24h-3.85c-0.35-0.27-0.35-0.53,0-0.8
		h3.98v-2.92c-1.15,0.09-2.3,0.18-3.45,0.27c-0.44-0.27-0.44-0.53,0-0.8C372.78,133.35,375.26,133.13,377.3,132.87z M383.67,133.27
		v13.02c0.09,1.42-0.44,2.08-1.59,1.99c-0.62,0.09-1.64-0.13-3.05-0.66c-0.35-0.53-0.27-0.84,0.27-0.93
		c2.66,1.15,3.85,0.93,3.59-0.66v-12.75C383.14,132.82,383.41,132.82,383.67,133.27z M379.69,134.2v10.23
		c-0.27,0.44-0.53,0.44-0.8,0V134.2C379.16,133.84,379.42,133.84,379.69,134.2z"/>
	<path d="M399.45,133.13c0.27-0.35,0.53-0.35,0.8,0v1.33h7.44v-1.33c0.27-0.35,0.53-0.35,0.8,0v1.33h2.66c0.35,0.27,0.35,0.53,0,0.8
		h-2.66v8.5h3.19c0.35,0.27,0.35,0.53,0,0.8H396.4c-0.35-0.27-0.35-0.53,0-0.8h3.05v-8.5h-2.39c-0.35-0.27-0.35-0.53,0-0.8h2.39
		V133.13z M401.98,145.09c0.44-0.09,0.62,0.13,0.53,0.66c-1.59,1.15-3.19,1.99-4.78,2.52c-0.53-0.18-0.58-0.49-0.13-0.93
		C398.92,146.9,400.38,146.15,401.98,145.09z M407.69,135.26h-7.44v2.26h7.44V135.26z M407.69,138.31h-7.44v2.26h7.44V138.31z
		 M407.69,141.37h-7.44v2.39h7.44V141.37z M406.23,144.95c1.86,0.89,3.28,1.77,4.25,2.66c0.18,0.53-0.04,0.75-0.66,0.66
		c-1.24-0.97-2.57-1.82-3.98-2.52C405.56,145.31,405.69,145.04,406.23,144.95z"/>
	<path d="M434.35,138.45c-0.09-0.44,0.09-0.62,0.53-0.53c0.8,0.53,1.33,0.97,1.59,1.33h1.86c0.44,0.27,0.44,0.53,0,0.8h-5.05
		c1.95,1.33,3.85,2.17,5.71,2.52c0.35,0.35,0.27,0.62-0.27,0.8c-2.48-0.62-4.74-1.73-6.77-3.32h-1.99
		c-1.77,1.68-3.76,2.79-5.98,3.32c-0.44-0.18-0.53-0.44-0.27-0.8c1.77-0.35,3.45-1.2,5.05-2.52H424c-0.44-0.27-0.44-0.53,0-0.8h5.45
		c0.44-0.44,0.88-1.02,1.33-1.73c0.44-0.35,0.71-0.27,0.8,0.27c-0.44,0.62-0.8,1.11-1.06,1.46h4.91
		C435.24,139.07,434.89,138.8,434.35,138.45z M426.12,133.13h3.19c0.97,0,1.42,0.4,1.33,1.2v1.99c0.09,0.97-0.35,1.42-1.33,1.33
		h-3.19c-0.89,0.09-1.33-0.35-1.33-1.33v-1.86C424.79,133.66,425.23,133.22,426.12,133.13z M424.79,144.55
		c0-0.97,0.53-1.5,1.59-1.59h2.39c1.15,0,1.68,0.53,1.59,1.59v2.12c0.09,1.15-0.44,1.68-1.59,1.59h-2.39
		c-1.06,0.09-1.59-0.44-1.59-1.59V144.55z M429.04,133.93h-2.66c-0.53,0-0.8,0.27-0.8,0.8v1.33c0,0.62,0.27,0.89,0.8,0.8h2.66
		c0.62,0.09,0.88-0.18,0.8-0.8v-1.46C429.93,134.15,429.66,133.93,429.04,133.93z M428.51,143.76h-1.86c-0.71,0-1.06,0.35-1.06,1.06
		v1.59c0,0.8,0.35,1.15,1.06,1.06h1.86c0.8,0.09,1.15-0.27,1.06-1.06v-1.59C429.66,144.11,429.31,143.76,428.51,143.76z
		 M431.96,134.46c0.09-0.88,0.53-1.33,1.33-1.33h3.19c0.97,0,1.42,0.44,1.33,1.33v1.86c0.09,0.97-0.35,1.42-1.33,1.33h-3.19
		c-0.89,0.09-1.33-0.35-1.33-1.33V134.46z M431.96,144.55c0-1.06,0.53-1.59,1.59-1.59h2.79c1.15,0,1.68,0.53,1.59,1.59v2.12
		c0.09,1.15-0.44,1.68-1.59,1.59h-2.79c-1.06,0.09-1.59-0.44-1.59-1.59V144.55z M436.21,133.93h-2.66c-0.53,0-0.8,0.27-0.8,0.8v1.33
		c0,0.62,0.27,0.89,0.8,0.8h2.66c0.62,0.09,0.88-0.18,0.8-0.8v-1.33C437.1,134.2,436.83,133.93,436.21,133.93z M436.08,143.76h-2.26
		c-0.71,0-1.06,0.35-1.06,1.06v1.59c0,0.8,0.35,1.15,1.06,1.06h2.26c0.8,0.09,1.15-0.27,1.06-1.06v-1.59
		C437.23,144.11,436.88,143.76,436.08,143.76z"/>
</g>
<g>
</g>
<g>
</g>
<g>
</g>
<g>
</g>
<g>
</g>
<g>
</g>
<g>
</g>
<g>
</g>
<g>
</g>
<g>
</g>
<g>
</g>
<g>
</g>
<g>
</g>
<g>
</g>
<g>
</g>
</svg>
