<?xml version="1.0" encoding="utf-8"?>
<!-- Generator: Adobe Illustrator 25.3.1, SVG Export Plug-In . SVG Version: 6.00 Build 0)  -->
<svg version="1.1" id="图层_1" xmlns="http://www.w3.org/2000/svg" xmlns:xlink="http://www.w3.org/1999/xlink" x="0px" y="0px"
	 viewBox="0 0 300 150" style="enable-background:new 0 0 300 150;" xml:space="preserve">
<style type="text/css">
	.st0{fill:#FE9600;}
</style>
<g>
	<path class="st0" d="M21.79,37.86c-2.6,0-4.82-0.8-6.67-2.39c-1.85-1.59-2.77-3.85-2.77-6.77c0-2.64,0.95-4.82,2.84-6.53
		c1.89-1.71,4.09-2.56,6.6-2.56c2.42,0,4.56,0.78,6.43,2.32c1.87,1.55,2.8,3.81,2.8,6.77c0,2.87-0.91,5.12-2.73,6.73
		C26.46,37.05,24.3,37.86,21.79,37.86z M31.02,57.14v53.94c0,3.74-0.89,6.56-2.67,8.48s-4.03,2.87-6.77,2.87s-4.96-0.98-6.67-2.94
		s-2.56-4.76-2.56-8.41V57.69c0-3.69,0.85-6.47,2.56-8.34c1.71-1.87,3.93-2.8,6.67-2.8s4.99,0.93,6.77,2.8
		C30.13,51.22,31.02,53.81,31.02,57.14z"/>
	<path d="M68.55,30.14v27.69c2.37-2.73,4.68-4.9,6.94-6.49c2.26-1.59,4.75-2.79,7.49-3.59c2.73-0.8,5.67-1.2,8.82-1.2
		c4.74,0,8.94,1,12.61,3.01c3.67,2.01,6.55,4.92,8.65,8.75c1.32,2.23,2.21,4.73,2.67,7.49c0.46,2.76,0.68,5.94,0.68,9.54v35.75
		c0,3.74-0.85,6.56-2.56,8.48s-3.98,2.87-6.8,2.87c-6.15,0-9.23-3.78-9.23-11.35V79.56c0-5.97-0.89-10.56-2.67-13.77
		s-5.15-4.82-10.12-4.82c-3.33,0-6.32,0.95-8.99,2.84c-2.67,1.89-4.66,4.48-5.98,7.76c-1,2.78-1.5,7.73-1.5,14.83v24.68
		c0,3.69-0.83,6.51-2.5,8.44c-1.66,1.94-3.98,2.91-6.94,2.91c-6.15,0-9.23-3.78-9.23-11.35V30.14c0-3.78,0.81-6.62,2.43-8.51
		c1.62-1.89,3.88-2.84,6.8-2.84c2.96,0,5.27,0.96,6.94,2.87C67.72,23.58,68.55,26.4,68.55,30.14z"/>
	<path d="M183.33,111.9v-2.39c-2.23,2.83-4.58,5.2-7.04,7.11s-5.15,3.34-8.07,4.27c-2.92,0.93-6.24,1.4-9.98,1.4
		c-4.51,0-8.56-0.93-12.13-2.8c-3.58-1.87-6.35-4.44-8.31-7.72c-2.32-3.96-3.49-9.66-3.49-17.09V57.69c0-3.74,0.84-6.53,2.53-8.37
		c1.69-1.85,3.92-2.77,6.7-2.77c2.83,0,5.1,0.93,6.84,2.8c1.73,1.87,2.6,4.65,2.6,8.34v29.87c0,4.33,0.36,7.96,1.09,10.9
		c0.73,2.94,2.04,5.24,3.93,6.9c1.89,1.66,4.45,2.5,7.69,2.5c3.14,0,6.11-0.93,8.89-2.8c2.78-1.87,4.81-4.31,6.08-7.31
		c1.05-2.64,1.57-8.43,1.57-17.36v-22.7c0-3.69,0.87-6.47,2.6-8.34c1.73-1.87,3.99-2.8,6.77-2.8c2.78,0,5.01,0.92,6.7,2.77
		c1.69,1.85,2.53,4.64,2.53,8.37v54.07c0,3.55-0.81,6.22-2.43,8c-1.62,1.78-3.7,2.67-6.25,2.67c-2.55,0-4.66-0.92-6.32-2.77
		C184.16,117.81,183.33,115.22,183.33,111.9z"/>
	<path d="M236.65,29.45v28.51c3.51-3.65,7.09-6.44,10.73-8.37c3.65-1.94,8.16-2.91,13.54-2.91c6.2,0,11.63,1.47,16.3,4.41
		c4.67,2.94,8.29,7.2,10.87,12.78c2.57,5.58,3.86,12.2,3.86,19.86c0,5.65-0.72,10.83-2.15,15.55s-3.52,8.81-6.25,12.27
		c-2.73,3.46-6.05,6.14-9.95,8.03s-8.19,2.84-12.89,2.84c-2.87,0-5.57-0.34-8.1-1.03s-4.68-1.58-6.46-2.7
		c-1.78-1.12-3.29-2.27-4.55-3.45c-1.25-1.18-2.91-2.96-4.96-5.33v1.85c0,3.51-0.84,6.16-2.53,7.96c-1.69,1.8-3.83,2.7-6.43,2.7
		c-2.64,0-4.75-0.9-6.32-2.7s-2.36-4.45-2.36-7.96V30.27c0-3.78,0.76-6.64,2.29-8.58c1.53-1.94,3.66-2.91,6.39-2.91
		c2.87,0,5.08,0.92,6.63,2.77C235.87,23.4,236.65,26.04,236.65,29.45z M237.53,84.89c0,7.43,1.7,13.14,5.09,17.12
		c3.39,3.99,7.85,5.98,13.36,5.98c4.69,0,8.74-2.04,12.13-6.12c3.39-4.08,5.09-9.92,5.09-17.53c0-4.92-0.71-9.16-2.12-12.72
		c-1.41-3.55-3.42-6.3-6.02-8.24c-2.6-1.94-5.63-2.91-9.09-2.91c-3.55,0-6.72,0.97-9.5,2.91c-2.78,1.94-4.97,4.74-6.56,8.41
		C238.33,75.47,237.53,79.84,237.53,84.89z"/>
</g>
<g>
</g>
<g>
</g>
<g>
</g>
<g>
</g>
<g>
</g>
<g>
</g>
<g>
</g>
<g>
</g>
<g>
</g>
<g>
</g>
<g>
</g>
<g>
</g>
<g>
</g>
<g>
</g>
<g>
</g>
</svg>
