<?xml version="1.0" encoding="utf-8"?>
<!-- Generator: Adobe Illustrator 25.3.1, SVG Export Plug-In . SVG Version: 6.00 Build 0)  -->
<svg version="1.1" id="图层_1" xmlns="http://www.w3.org/2000/svg" xmlns:xlink="http://www.w3.org/1999/xlink" x="0px" y="0px"
	 viewBox="0 0 495 150" style="enable-background:new 0 0 495 150;" xml:space="preserve">
<g>
	<path d="M26.43,57v2.26c3.51-4.33,7.15-7.51,10.94-9.54c3.78-2.03,8.07-3.04,12.85-3.04c5.74,0,11.03,1.48,15.86,4.44
		c4.83,2.96,8.65,7.29,11.45,12.99c2.8,5.7,4.2,12.44,4.2,20.23c0,5.74-0.81,11.02-2.43,15.83c-1.62,4.81-3.84,8.84-6.67,12.1
		c-2.83,3.26-6.16,5.77-10.01,7.52c-3.85,1.75-7.99,2.63-12.41,2.63c-5.33,0-9.81-1.07-13.43-3.21s-7.08-5.29-10.36-9.43v28.03
		c0,8.2-2.99,12.3-8.96,12.3c-3.51,0-5.83-1.06-6.97-3.18c-1.14-2.12-1.71-5.21-1.71-9.26V57.14c0-3.55,0.77-6.21,2.32-7.96
		c1.55-1.75,3.67-2.63,6.36-2.63c2.64,0,4.8,0.9,6.46,2.7C25.59,51.04,26.43,53.63,26.43,57z M63,84.14c0-4.92-0.75-9.15-2.26-12.68
		c-1.5-3.53-3.59-6.24-6.25-8.13c-2.67-1.89-5.62-2.84-8.85-2.84c-5.15,0-9.49,2.03-13.02,6.08c-3.53,4.06-5.3,10.03-5.3,17.91
		c0,7.43,1.75,13.21,5.26,17.33c3.51,4.12,7.86,6.19,13.06,6.19c3.1,0,5.97-0.9,8.61-2.7c2.64-1.8,4.76-4.5,6.36-8.1
		C62.2,93.6,63,89.25,63,84.14z"/>
	<path d="M96.7,111.08V30.14c0-3.74,0.83-6.56,2.5-8.48c1.66-1.91,3.91-2.87,6.73-2.87c2.83,0,5.1,0.95,6.84,2.84
		c1.73,1.89,2.6,4.73,2.6,8.51v80.94c0,3.78-0.88,6.62-2.63,8.51c-1.75,1.89-4.02,2.84-6.8,2.84c-2.73,0-4.96-0.98-6.67-2.94
		S96.7,114.72,96.7,111.08z"/>
	<path d="M183.11,111.9v-2.39c-2.23,2.83-4.58,5.2-7.04,7.11s-5.15,3.34-8.07,4.27c-2.92,0.93-6.24,1.4-9.98,1.4
		c-4.51,0-8.56-0.93-12.13-2.8c-3.58-1.87-6.35-4.44-8.31-7.72c-2.32-3.96-3.49-9.66-3.49-17.09V57.69c0-3.74,0.84-6.53,2.53-8.37
		c1.69-1.85,3.92-2.77,6.7-2.77c2.83,0,5.1,0.93,6.84,2.8c1.73,1.87,2.6,4.65,2.6,8.34v29.87c0,4.33,0.36,7.96,1.09,10.9
		c0.73,2.94,2.04,5.24,3.93,6.9c1.89,1.66,4.45,2.5,7.69,2.5c3.14,0,6.11-0.93,8.89-2.8c2.78-1.87,4.81-4.31,6.08-7.31
		c1.05-2.64,1.57-8.43,1.57-17.36v-22.7c0-3.69,0.87-6.47,2.6-8.34c1.73-1.87,3.99-2.8,6.77-2.8c2.78,0,5.01,0.92,6.7,2.77
		c1.69,1.85,2.53,4.64,2.53,8.37v54.07c0,3.55-0.81,6.22-2.43,8c-1.62,1.78-3.7,2.67-6.25,2.67c-2.55,0-4.66-0.92-6.32-2.77
		C183.94,117.81,183.11,115.22,183.11,111.9z"/>
	<path d="M287.83,60.22v54.21c0,6.2-0.66,11.53-1.98,16c-1.32,4.47-3.44,8.16-6.36,11.07c-2.92,2.92-6.73,5.08-11.45,6.49
		c-4.72,1.41-10.58,2.12-17.6,2.12c-6.43,0-12.17-0.9-17.23-2.7c-5.06-1.8-8.96-4.12-11.69-6.97c-2.73-2.85-4.1-5.78-4.1-8.78
		c0-2.28,0.77-4.14,2.32-5.57c1.55-1.44,3.42-2.15,5.61-2.15c2.73,0,5.13,1.21,7.18,3.62c1,1.23,2.04,2.47,3.11,3.73
		c1.07,1.25,2.26,2.32,3.55,3.21s2.86,1.55,4.68,1.98c1.82,0.43,3.92,0.65,6.29,0.65c4.83,0,8.58-0.67,11.25-2.02
		c2.67-1.34,4.53-3.22,5.61-5.64c1.07-2.42,1.7-5,1.88-7.76c0.18-2.76,0.32-7.19,0.41-13.3c-2.87,4.01-6.19,7.06-9.95,9.16
		c-3.76,2.1-8.24,3.14-13.43,3.14c-6.24,0-11.7-1.59-16.37-4.79c-4.67-3.19-8.26-7.66-10.77-13.4c-2.51-5.74-3.76-12.37-3.76-19.89
		c0-5.61,0.76-10.66,2.29-15.18c1.53-4.51,3.7-8.32,6.53-11.42c2.83-3.1,6.08-5.43,9.78-7.01s7.75-2.36,12.17-2.36
		c5.29,0,9.87,1.01,13.74,3.04c3.87,2.03,7.47,5.21,10.8,9.54v-2.53c0-3.24,0.8-5.74,2.39-7.52c1.59-1.78,3.65-2.67,6.15-2.67
		c3.6,0,5.99,1.17,7.18,3.52C287.24,52.41,287.83,55.8,287.83,60.22z M233.76,83.87c0,7.57,1.65,13.29,4.96,17.16
		c3.3,3.87,7.58,5.81,12.82,5.81c3.1,0,6.03-0.83,8.78-2.5c2.76-1.66,5-4.17,6.73-7.52c1.73-3.35,2.6-7.42,2.6-12.2
		c0-7.61-1.67-13.54-5.02-17.77s-7.76-6.36-13.23-6.36c-5.33,0-9.6,2.03-12.82,6.08C235.37,70.63,233.76,76.39,233.76,83.87z"/>
	<path d="M316.13,37.86c-2.6,0-4.82-0.8-6.67-2.39c-1.85-1.59-2.77-3.85-2.77-6.77c0-2.64,0.95-4.82,2.84-6.53
		c1.89-1.71,4.09-2.56,6.6-2.56c2.42,0,4.56,0.78,6.43,2.32c1.87,1.55,2.8,3.81,2.8,6.77c0,2.87-0.91,5.12-2.73,6.73
		C320.8,37.05,318.64,37.86,316.13,37.86z M325.36,57.14v53.94c0,3.74-0.89,6.56-2.67,8.48s-4.03,2.87-6.77,2.87
		s-4.96-0.98-6.67-2.94s-2.56-4.76-2.56-8.41V57.69c0-3.69,0.85-6.47,2.56-8.34c1.71-1.87,3.93-2.8,6.67-2.8s4.99,0.93,6.77,2.8
		C324.47,51.22,325.36,53.81,325.36,57.14z"/>
	<path d="M361.59,56.87v2.26c3.28-4.33,6.87-7.51,10.77-9.54c3.9-2.03,8.37-3.04,13.43-3.04c4.92,0,9.32,1.07,13.19,3.21
		c3.87,2.14,6.77,5.17,8.68,9.09c1.23,2.28,2.03,4.74,2.39,7.38c0.36,2.64,0.55,6.02,0.55,10.12v34.73c0,3.74-0.85,6.56-2.56,8.48
		s-3.93,2.87-6.67,2.87c-2.78,0-5.04-0.98-6.77-2.94c-1.73-1.96-2.6-4.76-2.6-8.41v-31.1c0-6.15-0.85-10.86-2.56-14.12
		c-1.71-3.26-5.12-4.89-10.22-4.89c-3.33,0-6.36,0.99-9.09,2.97s-4.74,4.71-6.02,8.17c-0.91,2.78-1.37,7.98-1.37,15.59v23.38
		c0,3.78-0.88,6.62-2.63,8.51c-1.75,1.89-4.02,2.84-6.8,2.84c-2.69,0-4.9-0.98-6.63-2.94c-1.73-1.96-2.6-4.76-2.6-8.41V57.14
		c0-3.55,0.77-6.21,2.32-7.96c1.55-1.75,3.67-2.63,6.36-2.63c1.64,0,3.12,0.39,4.44,1.16c1.32,0.78,2.38,1.94,3.18,3.49
		C361.19,52.74,361.59,54.63,361.59,56.87z"/>
	<path d="M489.29,98.02c0,5.15-1.25,9.56-3.76,13.23c-2.51,3.67-6.21,6.45-11.11,8.34c-4.9,1.89-10.86,2.84-17.88,2.84
		c-6.7,0-12.44-1.03-17.23-3.08s-8.32-4.61-10.6-7.69c-2.28-3.08-3.42-6.16-3.42-9.26c0-2.05,0.73-3.8,2.19-5.26
		c1.46-1.46,3.3-2.19,5.54-2.19c1.96,0,3.46,0.48,4.51,1.44c1.05,0.96,2.05,2.3,3.01,4.03c1.91,3.33,4.2,5.81,6.87,7.45
		s6.3,2.46,10.9,2.46c3.74,0,6.8-0.83,9.19-2.5c2.39-1.66,3.59-3.57,3.59-5.71c0-3.28-1.24-5.67-3.73-7.18
		c-2.48-1.5-6.57-2.94-12.27-4.31c-6.43-1.59-11.66-3.27-15.69-5.02c-4.03-1.75-7.26-4.07-9.67-6.94c-2.42-2.87-3.62-6.4-3.62-10.6
		c0-3.74,1.12-7.27,3.35-10.6c2.23-3.33,5.53-5.98,9.88-7.96c4.35-1.98,9.6-2.97,15.76-2.97c4.83,0,9.17,0.5,13.02,1.5
		c3.85,1,7.06,2.35,9.64,4.03c2.57,1.69,4.53,3.55,5.88,5.61c1.34,2.05,2.02,4.06,2.02,6.02c0,2.14-0.72,3.9-2.15,5.26
		s-3.48,2.05-6.12,2.05c-1.91,0-3.54-0.55-4.89-1.64c-1.34-1.09-2.88-2.73-4.61-4.92c-1.41-1.82-3.08-3.28-4.99-4.38
		s-4.51-1.64-7.79-1.64c-3.37,0-6.18,0.72-8.41,2.15c-2.23,1.44-3.35,3.22-3.35,5.37c0,1.96,0.82,3.57,2.46,4.82
		c1.64,1.25,3.85,2.29,6.63,3.11c2.78,0.82,6.61,1.82,11.48,3.01c5.79,1.41,10.52,3.1,14.18,5.06c3.67,1.96,6.45,4.27,8.34,6.94
		C488.34,91.56,489.29,94.6,489.29,98.02z"/>
</g>
<g>
</g>
<g>
</g>
<g>
</g>
<g>
</g>
<g>
</g>
<g>
</g>
<g>
</g>
<g>
</g>
<g>
</g>
<g>
</g>
<g>
</g>
<g>
</g>
<g>
</g>
<g>
</g>
<g>
</g>
</svg>
